<?xml version="1.0" encoding="UTF-8"?><svg id="Ebene_2" xmlns="http://www.w3.org/2000/svg" viewBox="0 0 457.54 359.4"><g id="Ebene_1-2"><g opacity=".8"><path d="M277.58,355.4h-95.86c-.23-2.46-.66-5.21-.72-7.96-.27-12.49-.71-24.98-.53-37.46.11-7.76-1.99-14-7.45-19.78-20.59-21.77-40.77-43.92-61.23-65.8-2.39-2.55-5.57-4.37-8.38-6.53-.5.27-.99.55-1.49.82v136.65H4V4.13h96.81c0,6.92-.13,13.69.04,20.45.17,6.99.48,13.98,1.07,20.95.15,1.77,1.29,3.72,2.54,5.08,13.38,14.58,26.83,29.1,40.35,43.56,10,10.69,20.12,21.28,30.22,31.87,1.22,1.27,2.67,2.32,4.63,4V4h98.21v116.42h77.24V4.1h98.42v350.85h-98.53v-131.49h-77.44v131.93ZM29.61,30.56v298.73h46.17c0-54.92-.03-109.72.06-164.51,0-3.71.85-7.43,1.36-11.51,9.61,8.67,18.72,16,26.77,24.35,15.48,16.04,30.48,32.55,45.45,49.07,17.76,19.6,35.26,39.44,52.93,59.13,3.11,3.47,5.14,7.09,4.87,12.03-.38,7.14-.25,14.31-.3,21.47-.03,3.73,0,7.45,0,10.55h45.26v-133.58h129.3v132.58h45.97V30.33h-45.53v116.88c-3.61.24-6.73.64-9.86.61-38.32-.28-76.63-.68-114.95-.88-4.32-.02-5.62-1.26-5.54-5.71.49-26.15.68-52.31.91-78.46.09-10.93.02-21.86.02-32.85h-47.32v165.06c-2.35-2.06-4.01-3.54-5.69-5-1.87-1.62-3.97-3.03-5.6-4.86-17.93-20.14-35.55-40.55-53.74-60.45-16.29-17.83-33.16-35.13-49.8-52.63-9.99-10.5-17.4-21.93-14.53-37.43.26-1.38-.18-2.89-.28-4.05H29.61Z" fill="#242524" stroke="#ffed00" stroke-miterlimit="10" stroke-width="8"/><path d="M29.61,30.56h45.94c.09,1.16.53,2.67.28,4.05-2.87,15.5,4.55,26.94,14.53,37.43,16.65,17.5,33.51,34.8,49.8,52.63,18.18,19.9,35.81,40.32,53.74,60.45,1.63,1.83,3.73,3.24,5.6,4.86,1.68,1.46,3.34,2.93,5.69,5V29.92h47.32c0,10.99.08,21.92-.02,32.85-.22,26.15-.42,52.31-.91,78.46-.08,4.45,1.22,5.69,5.54,5.71,38.32.2,76.63.6,114.95.88,3.12.02,6.25-.38,9.86-.61V30.33h45.53v298.53h-45.97v-132.58h-129.3v133.58h-45.26c0-3.09-.03-6.82,0-10.55.06-7.16-.08-14.33.3-21.47.26-4.94-1.76-8.56-4.87-12.03-17.67-19.69-35.17-39.53-52.93-59.13-14.97-16.52-29.98-33.03-45.45-49.07-8.06-8.35-17.17-15.68-26.77-24.35-.5,4.08-1.35,7.79-1.36,11.51-.09,54.79-.06,109.59-.06,164.51H29.61V30.56Z" fill="#242524" stroke="#ffed00" stroke-miterlimit="10" stroke-width="8"/></g></g></svg>