<?xml version="1.0" encoding="UTF-8"?><svg id="Ebene_2" xmlns="http://www.w3.org/2000/svg" xmlns:xlink="http://www.w3.org/1999/xlink" viewBox="0 0 202 357.64"><defs><clipPath id="clippath"><rect x="69.23" y="199.58" width="69.56" height="158.07" fill="none" stroke-width="0"/></clipPath></defs><g id="Ebene_1-2"><ellipse cx="101" cy="95.5" rx="100.5" ry="95" fill="#ffe400" stroke="#fff" stroke-miterlimit="10"/><g clip-path="url(#clippath)"><circle cx="75.73" cy="206.08" r="6" fill="#ffe400" stroke="#fff" stroke-miterlimit="10"/><circle cx="92.73" cy="206.08" r="6" fill="#ffe400" stroke="#fff" stroke-miterlimit="10"/><circle cx="109.73" cy="206.08" r="6" fill="#ffe400" stroke="#fff" stroke-miterlimit="10"/><circle cx="126.73" cy="206.08" r="6" fill="#ffe400" stroke="#fff" stroke-miterlimit="10"/><circle cx="75.73" cy="229.08" r="6" fill="#ffe400" stroke="#fff" stroke-miterlimit="10"/><circle cx="92.73" cy="229.08" r="6" fill="#ffe400" stroke="#fff" stroke-miterlimit="10"/><circle cx="109.73" cy="229.08" r="6" fill="#ffe400" stroke="#fff" stroke-miterlimit="10"/><circle cx="126.73" cy="229.08" r="6" fill="#ffe400" stroke="#fff" stroke-miterlimit="10"/><circle cx="75.73" cy="252.08" r="6" fill="#ffe400" stroke="#fff" stroke-miterlimit="10"/><circle cx="92.73" cy="252.08" r="6" fill="#ffe400" stroke="#fff" stroke-miterlimit="10"/><circle cx="109.73" cy="252.08" r="6" fill="#ffe400" stroke="#fff" stroke-miterlimit="10"/><circle cx="126.73" cy="252.08" r="6" fill="#ffe400" stroke="#fff" stroke-miterlimit="10"/><circle cx="75.73" cy="275.08" r="6" fill="#ffe400" stroke="#fff" stroke-miterlimit="10"/><circle cx="92.73" cy="275.08" r="6" fill="#ffe400" stroke="#fff" stroke-miterlimit="10"/><circle cx="109.73" cy="275.08" r="6" fill="#ffe400" stroke="#fff" stroke-miterlimit="10"/><circle cx="126.73" cy="275.08" r="6" fill="#ffe400" stroke="#fff" stroke-miterlimit="10"/><circle cx="75.73" cy="298.08" r="6" fill="#ffe400" stroke="#fff" stroke-miterlimit="10"/><circle cx="92.73" cy="298.08" r="6" fill="#ffe400" stroke="#fff" stroke-miterlimit="10"/><circle cx="109.73" cy="298.08" r="6" fill="#ffe400" stroke="#fff" stroke-miterlimit="10"/><circle cx="126.73" cy="298.08" r="6" fill="#ffe400" stroke="#fff" stroke-miterlimit="10"/><circle cx="75.73" cy="321.08" r="6" fill="#ffe400" stroke="#fff" stroke-miterlimit="10"/><circle cx="92.73" cy="321.08" r="6" fill="#ffe400" stroke="#fff" stroke-miterlimit="10"/><circle cx="109.73" cy="321.08" r="6" fill="#ffe400" stroke="#fff" stroke-miterlimit="10"/><circle cx="126.73" cy="321.08" r="6" fill="#ffe400" stroke="#fff" stroke-miterlimit="10"/><circle cx="75.73" cy="344.08" r="6" fill="#ffe400" stroke="#fff" stroke-miterlimit="10"/><circle cx="92.73" cy="344.08" r="6" fill="#ffe400" stroke="#fff" stroke-miterlimit="10"/><circle cx="109.73" cy="344.08" r="6" fill="#ffe400" stroke="#fff" stroke-miterlimit="10"/><circle cx="126.73" cy="344.08" r="6" fill="#ffe400" stroke="#fff" stroke-miterlimit="10"/></g></g></svg>